<mxfile host="65bd71144e">
    <diagram id="zl8kWTTSY8fBLLXYk3Ny" name="Page-1">
        <mxGraphModel dx="1374" dy="817" grid="1" gridSize="10" guides="1" tooltips="1" connect="1" arrows="1" fold="1" page="1" pageScale="1" pageWidth="827" pageHeight="1169" math="0" shadow="0">
            <root>
                <mxCell id="0"/>
                <mxCell id="1" parent="0"/>
                <mxCell id="48" value="" style="rounded=0;orthogonalLoop=1;jettySize=auto;html=1;endArrow=none;endFill=0;" edge="1" parent="1" source="2" target="5">
                    <mxGeometry relative="1" as="geometry"/>
                </mxCell>
                <mxCell id="79" value="" style="edgeStyle=none;rounded=0;orthogonalLoop=1;jettySize=auto;html=1;endArrow=none;endFill=0;" edge="1" parent="1" source="2" target="14">
                    <mxGeometry relative="1" as="geometry">
                        <mxPoint x="430" y="280" as="targetPoint"/>
                    </mxGeometry>
                </mxCell>
                <mxCell id="2" value="" style="verticalLabelPosition=bottom;aspect=fixed;html=1;verticalAlign=top;strokeColor=none;align=center;outlineConnect=0;shape=mxgraph.citrix.license_server;" vertex="1" parent="1">
                    <mxGeometry x="490" y="342.5" width="65" height="85" as="geometry"/>
                </mxCell>
                <mxCell id="49" value="" style="rounded=0;orthogonalLoop=1;jettySize=auto;html=1;endArrow=none;endFill=0;" edge="1" parent="1" source="3" target="5">
                    <mxGeometry relative="1" as="geometry"/>
                </mxCell>
                <mxCell id="80" value="" style="edgeStyle=none;rounded=0;orthogonalLoop=1;jettySize=auto;html=1;endArrow=none;endFill=0;" edge="1" parent="1" source="3" target="57">
                    <mxGeometry relative="1" as="geometry"/>
                </mxCell>
                <mxCell id="3" value="" style="verticalLabelPosition=bottom;aspect=fixed;html=1;verticalAlign=top;strokeColor=none;align=center;outlineConnect=0;shape=mxgraph.citrix.desktop;" vertex="1" parent="1">
                    <mxGeometry x="230" y="350" width="89" height="98" as="geometry"/>
                </mxCell>
                <mxCell id="8" value="" style="group" vertex="1" connectable="0" parent="1">
                    <mxGeometry x="160" y="520" width="470" height="60" as="geometry"/>
                </mxCell>
                <mxCell id="5" value="" style="shape=cylinder3;whiteSpace=wrap;html=1;boundedLbl=1;backgroundOutline=1;size=15;rounded=1;rotation=90;" vertex="1" parent="8">
                    <mxGeometry x="205" y="-205" width="60" height="470" as="geometry"/>
                </mxCell>
                <mxCell id="7" value="&lt;span&gt;192.168.159.0/24&lt;/span&gt;" style="text;html=1;align=center;verticalAlign=middle;resizable=0;points=[];autosize=1;strokeColor=none;" vertex="1" parent="8">
                    <mxGeometry x="180" y="20" width="110" height="20" as="geometry"/>
                </mxCell>
                <mxCell id="13" value="" style="shape=table;html=1;whiteSpace=wrap;startSize=0;container=1;collapsible=0;childLayout=tableLayout;rounded=0;strokeColor=none;" vertex="1" parent="1">
                    <mxGeometry x="590" y="230" width="200" height="250" as="geometry"/>
                </mxCell>
                <mxCell id="36" style="shape=partialRectangle;html=1;whiteSpace=wrap;collapsible=0;dropTarget=0;pointerEvents=0;fillColor=none;top=0;left=0;bottom=0;right=0;points=[[0,0.5],[1,0.5]];portConstraint=eastwest;strokeColor=none;" vertex="1" parent="13">
                    <mxGeometry width="200" height="31" as="geometry"/>
                </mxCell>
                <mxCell id="37" value="nom" style="shape=partialRectangle;html=1;whiteSpace=wrap;connectable=0;fillColor=none;top=0;left=0;bottom=0;right=0;overflow=hidden;container=1;collapsible=0;strokeColor=none;" vertex="1" parent="36">
                    <mxGeometry width="35" height="31" as="geometry"/>
                </mxCell>
                <mxCell id="38" value="SRV1" style="shape=partialRectangle;html=1;whiteSpace=wrap;connectable=0;fillColor=none;top=0;left=0;bottom=0;right=0;overflow=hidden;align=left;strokeColor=none;" vertex="1" parent="36">
                    <mxGeometry x="35" width="165" height="31" as="geometry"/>
                </mxCell>
                <mxCell id="33" style="shape=partialRectangle;html=1;whiteSpace=wrap;collapsible=0;dropTarget=0;pointerEvents=0;fillColor=none;top=0;left=0;bottom=0;right=0;points=[[0,0.5],[1,0.5]];portConstraint=eastwest;strokeColor=none;" vertex="1" parent="13">
                    <mxGeometry y="31" width="200" height="32" as="geometry"/>
                </mxCell>
                <mxCell id="34" value="wkg" style="shape=partialRectangle;html=1;whiteSpace=wrap;connectable=0;fillColor=none;top=0;left=0;bottom=0;right=0;overflow=hidden;container=1;collapsible=0;strokeColor=none;" vertex="1" parent="33">
                    <mxGeometry width="35" height="32" as="geometry"/>
                </mxCell>
                <mxCell id="35" value="CABO" style="shape=partialRectangle;html=1;whiteSpace=wrap;connectable=0;fillColor=none;top=0;left=0;bottom=0;right=0;overflow=hidden;align=left;strokeColor=none;" vertex="1" parent="33">
                    <mxGeometry x="35" width="165" height="32" as="geometry"/>
                </mxCell>
                <mxCell id="45" style="shape=partialRectangle;html=1;whiteSpace=wrap;collapsible=0;dropTarget=0;pointerEvents=0;fillColor=none;top=0;left=0;bottom=0;right=0;points=[[0,0.5],[1,0.5]];portConstraint=eastwest;strokeColor=none;" vertex="1" parent="13">
                    <mxGeometry y="63" width="200" height="31" as="geometry"/>
                </mxCell>
                <mxCell id="46" value="ip" style="shape=partialRectangle;html=1;whiteSpace=wrap;connectable=0;fillColor=none;top=0;left=0;bottom=0;right=0;overflow=hidden;container=1;collapsible=0;strokeColor=none;" vertex="1" parent="45">
                    <mxGeometry width="35" height="31" as="geometry"/>
                </mxCell>
                <mxCell id="47" value="192.168.159.11" style="shape=partialRectangle;html=1;whiteSpace=wrap;connectable=0;fillColor=none;top=0;left=0;bottom=0;right=0;overflow=hidden;align=left;strokeColor=none;" vertex="1" parent="45">
                    <mxGeometry x="35" width="165" height="31" as="geometry"/>
                </mxCell>
                <mxCell id="42" style="shape=partialRectangle;html=1;whiteSpace=wrap;collapsible=0;dropTarget=0;pointerEvents=0;fillColor=none;top=0;left=0;bottom=0;right=0;points=[[0,0.5],[1,0.5]];portConstraint=eastwest;strokeColor=none;" vertex="1" parent="13">
                    <mxGeometry y="94" width="200" height="31" as="geometry"/>
                </mxCell>
                <mxCell id="43" value="DNS" style="shape=partialRectangle;html=1;whiteSpace=wrap;connectable=0;fillColor=none;top=0;left=0;bottom=0;right=0;overflow=hidden;container=1;collapsible=0;strokeColor=none;" vertex="1" parent="42">
                    <mxGeometry width="35" height="31" as="geometry"/>
                </mxCell>
                <mxCell id="44" value="192.168.159.11" style="shape=partialRectangle;html=1;whiteSpace=wrap;connectable=0;fillColor=none;top=0;left=0;bottom=0;right=0;overflow=hidden;align=left;strokeColor=none;" vertex="1" parent="42">
                    <mxGeometry x="35" width="165" height="31" as="geometry"/>
                </mxCell>
                <mxCell id="14" value="" style="shape=partialRectangle;html=1;whiteSpace=wrap;collapsible=0;dropTarget=0;pointerEvents=0;fillColor=none;top=0;left=0;bottom=0;right=0;points=[[0,0.5],[1,0.5]];portConstraint=eastwest;strokeColor=none;" vertex="1" parent="13">
                    <mxGeometry y="125" width="200" height="31" as="geometry"/>
                </mxCell>
                <mxCell id="15" value="" style="shape=partialRectangle;html=1;whiteSpace=wrap;connectable=0;fillColor=none;top=0;left=0;bottom=0;right=0;overflow=hidden;container=1;collapsible=0;strokeColor=none;" vertex="1" parent="14">
                    <mxGeometry width="35" height="31" as="geometry"/>
                </mxCell>
                <mxCell id="9" value="" style="verticalLabelPosition=bottom;aspect=fixed;html=1;verticalAlign=top;align=center;outlineConnect=0;shape=mxgraph.citrix.dns_server;rounded=1;strokeColor=none;" vertex="1" parent="15">
                    <mxGeometry x="10.690000000000001" y="5" width="16.54" height="20" as="geometry"/>
                </mxCell>
                <mxCell id="16" value="DNS" style="shape=partialRectangle;html=1;whiteSpace=wrap;connectable=0;fillColor=none;top=0;left=0;bottom=0;right=0;overflow=hidden;align=left;strokeColor=none;" vertex="1" parent="14">
                    <mxGeometry x="35" width="165" height="31" as="geometry"/>
                </mxCell>
                <mxCell id="18" value="" style="shape=partialRectangle;html=1;whiteSpace=wrap;collapsible=0;dropTarget=0;pointerEvents=0;fillColor=none;top=0;left=0;bottom=0;right=0;points=[[0,0.5],[1,0.5]];portConstraint=eastwest;strokeColor=none;" vertex="1" parent="13">
                    <mxGeometry y="156" width="200" height="32" as="geometry"/>
                </mxCell>
                <mxCell id="19" value="" style="shape=partialRectangle;html=1;whiteSpace=wrap;connectable=0;fillColor=none;top=0;left=0;bottom=0;right=0;overflow=hidden;container=1;collapsible=0;strokeColor=none;" vertex="1" parent="18">
                    <mxGeometry width="35" height="32" as="geometry"/>
                </mxCell>
                <mxCell id="10" value="" style="verticalLabelPosition=bottom;aspect=fixed;html=1;verticalAlign=top;align=center;outlineConnect=0;shape=mxgraph.citrix.dhcp_server;rounded=1;strokeColor=none;" vertex="1" parent="19">
                    <mxGeometry x="9.050000000000015" y="5" width="16.89" height="20" as="geometry"/>
                </mxCell>
                <mxCell id="20" value="DHCP" style="shape=partialRectangle;html=1;whiteSpace=wrap;connectable=0;fillColor=none;top=0;left=0;bottom=0;right=0;overflow=hidden;align=left;strokeColor=none;" vertex="1" parent="18">
                    <mxGeometry x="35" width="165" height="32" as="geometry"/>
                </mxCell>
                <mxCell id="22" value="" style="shape=partialRectangle;html=1;whiteSpace=wrap;collapsible=0;dropTarget=0;pointerEvents=0;fillColor=none;top=0;left=0;bottom=0;right=0;points=[[0,0.5],[1,0.5]];portConstraint=eastwest;strokeColor=none;" vertex="1" parent="13">
                    <mxGeometry y="188" width="200" height="31" as="geometry"/>
                </mxCell>
                <mxCell id="23" value="" style="shape=partialRectangle;html=1;whiteSpace=wrap;connectable=0;fillColor=none;top=0;left=0;bottom=0;right=0;overflow=hidden;collapsible=0;container=1;strokeColor=none;" vertex="1" parent="22">
                    <mxGeometry width="35" height="31" as="geometry"/>
                </mxCell>
                <mxCell id="28" value="" style="verticalLabelPosition=bottom;aspect=fixed;html=1;verticalAlign=top;align=center;outlineConnect=0;shape=mxgraph.citrix.web_server;rounded=0;strokeColor=none;" vertex="1" parent="23">
                    <mxGeometry x="8.940000000000001" y="5" width="17" height="20" as="geometry"/>
                </mxCell>
                <mxCell id="24" value="IIS" style="shape=partialRectangle;html=1;whiteSpace=wrap;connectable=0;fillColor=none;top=0;left=0;bottom=0;right=0;overflow=hidden;align=left;strokeColor=none;" vertex="1" parent="22">
                    <mxGeometry x="35" width="165" height="31" as="geometry"/>
                </mxCell>
                <mxCell id="30" style="shape=partialRectangle;html=1;whiteSpace=wrap;collapsible=0;dropTarget=0;pointerEvents=0;fillColor=none;top=0;left=0;bottom=0;right=0;points=[[0,0.5],[1,0.5]];portConstraint=eastwest;strokeColor=none;" vertex="1" parent="13">
                    <mxGeometry y="219" width="200" height="31" as="geometry"/>
                </mxCell>
                <mxCell id="31" style="shape=partialRectangle;html=1;whiteSpace=wrap;connectable=0;fillColor=none;top=0;left=0;bottom=0;right=0;overflow=hidden;collapsible=0;container=1;strokeColor=none;" vertex="1" parent="30">
                    <mxGeometry width="35" height="31" as="geometry"/>
                </mxCell>
                <mxCell id="29" value="" style="verticalLabelPosition=bottom;aspect=fixed;html=1;verticalAlign=top;align=center;outlineConnect=0;shape=mxgraph.citrix.file_server;rounded=0;strokeColor=none;" vertex="1" parent="31">
                    <mxGeometry x="10.180000000000007" y="5" width="14.64" height="20" as="geometry"/>
                </mxCell>
                <mxCell id="32" value="&lt;span class=&quot;notion-enable-hover&quot;&gt;Services de fichiers et de stockage&lt;/span&gt;" style="shape=partialRectangle;html=1;whiteSpace=wrap;connectable=0;fillColor=none;top=0;left=0;bottom=0;right=0;overflow=hidden;align=left;strokeColor=none;" vertex="1" parent="30">
                    <mxGeometry x="35" width="165" height="31" as="geometry"/>
                </mxCell>
                <mxCell id="50" value="" style="shape=table;html=1;whiteSpace=wrap;startSize=0;container=1;collapsible=0;childLayout=tableLayout;rounded=0;strokeColor=none;" vertex="1" parent="1">
                    <mxGeometry x="20" y="302.5" width="200" height="125" as="geometry"/>
                </mxCell>
                <mxCell id="51" style="shape=partialRectangle;html=1;whiteSpace=wrap;collapsible=0;dropTarget=0;pointerEvents=0;fillColor=none;top=0;left=0;bottom=0;right=0;points=[[0,0.5],[1,0.5]];portConstraint=eastwest;strokeColor=none;" vertex="1" parent="50">
                    <mxGeometry width="200" height="31" as="geometry"/>
                </mxCell>
                <mxCell id="52" value="nom" style="shape=partialRectangle;html=1;whiteSpace=wrap;connectable=0;fillColor=none;top=0;left=0;bottom=0;right=0;overflow=hidden;container=1;collapsible=0;strokeColor=none;" vertex="1" parent="51">
                    <mxGeometry width="35" height="31" as="geometry"/>
                </mxCell>
                <mxCell id="53" value="PC01" style="shape=partialRectangle;html=1;whiteSpace=wrap;connectable=0;fillColor=none;top=0;left=0;bottom=0;right=0;overflow=hidden;align=left;strokeColor=none;" vertex="1" parent="51">
                    <mxGeometry x="35" width="165" height="31" as="geometry"/>
                </mxCell>
                <mxCell id="54" style="shape=partialRectangle;html=1;whiteSpace=wrap;collapsible=0;dropTarget=0;pointerEvents=0;fillColor=none;top=0;left=0;bottom=0;right=0;points=[[0,0.5],[1,0.5]];portConstraint=eastwest;strokeColor=none;" vertex="1" parent="50">
                    <mxGeometry y="31" width="200" height="32" as="geometry"/>
                </mxCell>
                <mxCell id="55" value="wkg" style="shape=partialRectangle;html=1;whiteSpace=wrap;connectable=0;fillColor=none;top=0;left=0;bottom=0;right=0;overflow=hidden;container=1;collapsible=0;strokeColor=none;" vertex="1" parent="54">
                    <mxGeometry width="35" height="32" as="geometry"/>
                </mxCell>
                <mxCell id="56" value="WORKGROUP" style="shape=partialRectangle;html=1;whiteSpace=wrap;connectable=0;fillColor=none;top=0;left=0;bottom=0;right=0;overflow=hidden;align=left;strokeColor=none;" vertex="1" parent="54">
                    <mxGeometry x="35" width="165" height="32" as="geometry"/>
                </mxCell>
                <mxCell id="57" style="shape=partialRectangle;html=1;whiteSpace=wrap;collapsible=0;dropTarget=0;pointerEvents=0;fillColor=none;top=0;left=0;bottom=0;right=0;points=[[0,0.5],[1,0.5]];portConstraint=eastwest;strokeColor=none;" vertex="1" parent="50">
                    <mxGeometry y="63" width="200" height="31" as="geometry"/>
                </mxCell>
                <mxCell id="58" value="ip" style="shape=partialRectangle;html=1;whiteSpace=wrap;connectable=0;fillColor=none;top=0;left=0;bottom=0;right=0;overflow=hidden;container=1;collapsible=0;strokeColor=none;" vertex="1" parent="57">
                    <mxGeometry width="35" height="31" as="geometry"/>
                </mxCell>
                <mxCell id="59" value="DHCP" style="shape=partialRectangle;html=1;whiteSpace=wrap;connectable=0;fillColor=none;top=0;left=0;bottom=0;right=0;overflow=hidden;align=left;strokeColor=none;" vertex="1" parent="57">
                    <mxGeometry x="35" width="165" height="31" as="geometry"/>
                </mxCell>
                <mxCell id="60" style="shape=partialRectangle;html=1;whiteSpace=wrap;collapsible=0;dropTarget=0;pointerEvents=0;fillColor=none;top=0;left=0;bottom=0;right=0;points=[[0,0.5],[1,0.5]];portConstraint=eastwest;strokeColor=none;" vertex="1" parent="50">
                    <mxGeometry y="94" width="200" height="31" as="geometry"/>
                </mxCell>
                <mxCell id="61" value="DNS" style="shape=partialRectangle;html=1;whiteSpace=wrap;connectable=0;fillColor=none;top=0;left=0;bottom=0;right=0;overflow=hidden;container=1;collapsible=0;strokeColor=none;" vertex="1" parent="60">
                    <mxGeometry width="35" height="31" as="geometry"/>
                </mxCell>
                <mxCell id="62" value="DHCP" style="shape=partialRectangle;html=1;whiteSpace=wrap;connectable=0;fillColor=none;top=0;left=0;bottom=0;right=0;overflow=hidden;align=left;strokeColor=none;" vertex="1" parent="60">
                    <mxGeometry x="35" width="165" height="31" as="geometry"/>
                </mxCell>
            </root>
        </mxGraphModel>
    </diagram>
</mxfile>